# xmcd CD database file
#
# Track frame offsets:
#	150
#	15934
#	29622
#	43232
#	57415
#	71072
#	84492
#	97690
#	110695
#	122582
#	134027
#	146995
#	158475
#	167260
#	182002
#	204105
#	227912
#	247615
#	257372
#
# Disc length: 3661 seconds
#
# Revision: 0
# Processed by: cddbd v1.4PL0 Copyright (c) Steve Scherf et al.
# Submitted via: CDex 1.50Beta7
#
DISCID=f50e4b13
DTITLE=Various Artist - The ultimate Anthology of BLues and Jazz, Vol. 3, Disc 2
DYEAR=1900
DGENRE=Blues
TTITLE0=Bessie Smith/You've been a good ole wagon
TTITLE1=Sippie Wallace/A man for every day in the week
TTITLE2=Lizzie Miles/Don't tell me nothing 'bout my man
TTITLE3=Richard "Rabbit" Brown/James Alley Blues
TTITLE4=Lonnie Johnson/Playing with the strings
TTITLE5=Louis Armstrong's Hot five/I'm not rough
TTITLE6=Champion Jack Dupree/Angola Blues
TTITLE7=Professor Longhair/Mardi Gras in New Orleans
TTITLE8=Fats Domino/The Fat Man
TTITLE9=Dave Bartholomew/That's how you got killed before
TTITLE10=Smiley Lewis/Slide me down
TTITLE11=Paul Gayten and Annie Laurie/My rough and ready man
TTITLE12=Tuts Washington/Tee-Nah-Nah
TTITLE13=James Booker/Classified
TTITLE14=Irma Thomas/I needed somebody
TTITLE15=Wolfman Washington/Nobody's fault but mine
TTITLE16=Rebirth Brass Band/Kidd Jordan's Second Line
TTITLE17=Katie Webster/Ooh-Wee Sweet Daddy
TTITLE18=Boozoo Davis/Paper in my shoe
EXTD=
EXTT0=
EXTT1=
EXTT2=
EXTT3=
EXTT4=
EXTT5=
EXTT6=
EXTT7=
EXTT8=
EXTT9=
EXTT10=
EXTT11=
EXTT12=
EXTT13=
EXTT14=
EXTT15=
EXTT16=
EXTT17=
EXTT18=
PLAYORDER=
